# xmcd
#
# Track frame offsets:
#	150
#	14642
#	35207
#	50946
#	64730
#	77847
#	91769
#	108846
#	125472
#	140201
#	153119
#	167545
#	183840
#	200313
#
# Disc length: 2957 seconds
#
# Revision: 0
# Processed by: cddbd v1.5.2PL0 Copyright (c) Steve Scherf et al.
# Submitted via: audiograbber 1.83.01
#
DISCID=bd0b8b0e
DTITLE=PAIXAO SERTANEJA-1 - PAIXAO SERTANEJA-1
DYEAR=2009
DGENRE=Country
TTITLE0=Tem que ser voce - Vitor e Leo
TTITLE1=Vou te amar - Hugo pena e gabriel
TTITLE2=Caso Por Acaso - Cesar menotti e Fabiano
TTITLE3=Chora Me Liga - Joao Bosco e Vinicius
TTITLE4=Meu Anjo - Joao Neto e Frederico
TTITLE5=Era So Pra Ficar - Nechivile
TTITLE6=Minta Finja - Pedro Paulo e Matheus
TTITLE7=Quem Sabe Seu Amor Sou Eu - Carlos e Jader
TTITLE8=Vem Me Amar - Marcos e Belutti
TTITLE9=Dou A Vida Por Um Beijo - Alan e Alex
TTITLE10=Uma Chance A Mais - Marco e Mario
TTITLE11=To Abrindo As Portas do Meu Coração - Rud e Robson
TTITLE12=Amor Vira Lata - Hugo e Thiago
TTITLE13=Menininha - Tche Garotos
EXTD=
EXTT0=
EXTT1=
EXTT2=
EXTT3=
EXTT4=
EXTT5=
EXTT6=
EXTT7=
EXTT8=
EXTT9=
EXTT10=
EXTT11=
EXTT12=
EXTT13=
PLAYORDER=
